<svg version="1.1" xmlns="http://www.w3.org/2000/svg" width="700" height="350" viewBox="0 0 700 350">

<style>
  .technique {
    font-family: monospace;
    font-size: 20px;
    text-align: center;
  }
  .optlevel {
    font-family: monospace;
    font-size: 30px;
    text-align: center;
  }
</style>

<!--
Bars are generated with this Python script.
The color scheme is due to Paul Tol, https://personal.sron.nl/~pault/
colors = ["#CC3311", "#009988"]
groups = [
    ("-O0", [
      (["forward", ""], [115.064, 110.846, 109.218, 113.160]),
      (["cast", ""], [102.832, 106.348, 105.589, 111.344]),
    ]),
    ("-O2 -g", [
      (["forward", ""], [204.809, 216.938, 221.418, 208.776]),
      (["cast", ""], [211.770, 202.536, 207.602, 201.535]),
    ]),
    ("-O3", [
      (["forward", ""], [167.517, 164.323, 169.296, 175.783]),
      (["cast", ""], [159.933, 156.982, 161.922, 159.044]),
    ]),
]
BarWidth = 20
BaselineY = 250
TechniqueY = 270
OptLevelY = 325
cx = 30
for (optlevel, results) in groups:
  print('<text x="%d" y="%d" text-anchor="middle" class="optlevel">%s</text>' % (cx + BarWidth*9/2, OptLevelY, optlevel))
  perfBaseline = sum(results[0][1]) / len(results[0][1])
  for (color, (technique, bars)) in zip(colors, results):
    print('<g>')
    perf = sum(bars) / len(bars)
    for dy, line in enumerate(technique + ['%d%%' % int(100 * (perf / perfBaseline) + 0.5)]):
      print('  <text x="%d" y="%d" text-anchor="middle" class="technique">%s</text>' % (cx + BarWidth*4/2, TechniqueY + 10*dy, line))
    for h in bars:
      print('  <rect x="%d" y="%d" fill="%s" width="%d" height="%.3f"/>' % (cx, BaselineY - h, color, BarWidth, h))
      cx += BarWidth
    print('</g>')
    cx += BarWidth
  cx += BarWidth
-->

<text x="120" y="325" text-anchor="middle" class="optlevel">-O0</text>
<g>
  <text x="70" y="270" text-anchor="middle" class="technique">forward</text>
  <text x="70" y="280" text-anchor="middle" class="technique"></text>
  <text x="70" y="290" text-anchor="middle" class="technique">100%</text>
  <rect x="30" y="134" fill="#CC3311" width="20" height="115.064"/>
  <rect x="50" y="139" fill="#CC3311" width="20" height="110.846"/>
  <rect x="70" y="140" fill="#CC3311" width="20" height="109.218"/>
  <rect x="90" y="136" fill="#CC3311" width="20" height="113.160"/>
</g>
<g>
  <text x="170" y="270" text-anchor="middle" class="technique">cast</text>
  <text x="170" y="280" text-anchor="middle" class="technique"></text>
  <text x="170" y="290" text-anchor="middle" class="technique">95%</text>
  <rect x="130" y="147" fill="#009988" width="20" height="102.832"/>
  <rect x="150" y="143" fill="#009988" width="20" height="106.348"/>
  <rect x="170" y="144" fill="#009988" width="20" height="105.589"/>
  <rect x="190" y="138" fill="#009988" width="20" height="111.344"/>
</g>
<text x="340" y="325" text-anchor="middle" class="optlevel">-O2 -g</text>
<g>
  <text x="290" y="270" text-anchor="middle" class="technique">forward</text>
  <text x="290" y="280" text-anchor="middle" class="technique"></text>
  <text x="290" y="290" text-anchor="middle" class="technique">100%</text>
  <rect x="250" y="45" fill="#CC3311" width="20" height="204.809"/>
  <rect x="270" y="33" fill="#CC3311" width="20" height="216.938"/>
  <rect x="290" y="28" fill="#CC3311" width="20" height="221.418"/>
  <rect x="310" y="41" fill="#CC3311" width="20" height="208.776"/>
</g>
<g>
  <text x="390" y="270" text-anchor="middle" class="technique">cast</text>
  <text x="390" y="280" text-anchor="middle" class="technique"></text>
  <text x="390" y="290" text-anchor="middle" class="technique">97%</text>
  <rect x="350" y="38" fill="#009988" width="20" height="211.770"/>
  <rect x="370" y="47" fill="#009988" width="20" height="202.536"/>
  <rect x="390" y="42" fill="#009988" width="20" height="207.602"/>
  <rect x="410" y="48" fill="#009988" width="20" height="201.535"/>
</g>
<text x="560" y="325" text-anchor="middle" class="optlevel">-O3</text>
<g>
  <text x="510" y="270" text-anchor="middle" class="technique">forward</text>
  <text x="510" y="280" text-anchor="middle" class="technique"></text>
  <text x="510" y="290" text-anchor="middle" class="technique">100%</text>
  <rect x="470" y="82" fill="#CC3311" width="20" height="167.517"/>
  <rect x="490" y="85" fill="#CC3311" width="20" height="164.323"/>
  <rect x="510" y="80" fill="#CC3311" width="20" height="169.296"/>
  <rect x="530" y="74" fill="#CC3311" width="20" height="175.783"/>
</g>
<g>
  <text x="610" y="270" text-anchor="middle" class="technique">cast</text>
  <text x="610" y="280" text-anchor="middle" class="technique"></text>
  <text x="610" y="290" text-anchor="middle" class="technique">94%</text>
  <rect x="570" y="90" fill="#009988" width="20" height="159.933"/>
  <rect x="590" y="93" fill="#009988" width="20" height="156.982"/>
  <rect x="610" y="88" fill="#009988" width="20" height="161.922"/>
  <rect x="630" y="90" fill="#009988" width="20" height="159.044"/>
</g>

</svg>
