<svg version="1.1" xmlns="http://www.w3.org/2000/svg" width="1200" height="350" viewBox="0 0 1200 350">

<style>
  .technique {
    font-family: monospace;
    font-size: 8px;
    text-align: center;
  }
  .optlevel {
    font-family: monospace;
    font-size: 12px;
    text-align: center;
  }
</style>

<!--
Bars are generated with this Python script.
The color scheme is due to Paul Tol, https://personal.sron.nl/~pault/
colors = ["#55A4D1", "#DD7760", "#55BBAF", "#0077BB", "#CC3311", "#009988"]
groups = [
    ("-O0", [
      (["detail::fwd", "-fno-builtin"], [120.951, 120.456, 116.721, 116.015]),
      (["std::forward", "-fno-builtin"], [120.684, 125.567, 121.821, 118.924]),
      (["cast", "-fno-builtin"], [109.769, 105.419, 99.843, 103.461]),
      (["detail::fwd", ""], [113.710, 118.285, 125.776, 117.796]),
      (["std::forward", ""], [115.064, 110.846, 109.218, 113.160]),
      (["cast", ""], [102.832, 106.348, 105.589, 111.344]),
    ]),
    ("-O2 -g", [
      (["detail::fwd", "-fno-builtin"], [222.003, 221.804, 231.551, 217.968]),
      (["std::forward", "-fno-builtin"], [233.819, 230.786, 226.708, 221.148]),
      (["cast", "-fno-builtin"], [199.158, 204.091, 202.128, 210.618]),
      (["detail::fwd", ""], [225.538, 215.013, 216.759, 223.713]),
      (["std::forward", ""], [204.809, 216.938, 221.418, 208.776]),
      (["cast", ""], [211.770, 202.536, 207.602, 201.535]),
    ]),
    ("-O3", [
      (["detail::fwd", "-fno-builtin"], [168.324, 178.451, 179.675, 169.649]),
      (["std::forward", "-fno-builtin"], [167.232, 171.536, 180.935, 171.175]),
      (["cast", "-fno-builtin"], [160.831, 164.267, 158.836, 157.007]),
      (["detail::fwd", ""], [175.636, 168.599, 170.926, 178.123]),
      (["std::forward", ""], [167.517, 164.323, 169.296, 175.783]),
      (["cast", ""], [159.933, 156.982, 161.922, 159.044]),
    ]),
]
BarWidth = 12
BaselineY = 250
TechniqueY = 260
OptLevelY = 300
cx = 30
for (optlevel, results) in groups:
  print('<text x="%d" y="%d" text-anchor="middle" class="optlevel">%s</text>' % (cx + BarWidth*29/2, OptLevelY, optlevel))
  perfBaseline = sum(results[4][1]) / len(results[4][1])
  for (color, (technique, bars)) in zip(colors, results):
    print('<g>')
    perf = sum(bars) / len(bars)
    for dy, line in enumerate(technique + ['%d%%' % int(100 * (perf / perfBaseline) + 0.5)]):
      print('  <text x="%d" y="%d" text-anchor="middle" class="technique">%s</text>' % (cx + BarWidth*4/2, TechniqueY + 9*dy, line))
    for h in bars:
      print('  <rect x="%d" y="%d" fill="%s" width="%d" height="%.3f"/>' % (cx, BaselineY - h, color, BarWidth, h))
      cx += BarWidth
    print('</g>')
    cx += BarWidth
  cx += BarWidth
-->

<text x="204" y="300" text-anchor="middle" class="optlevel">-O0</text>
<g>
  <text x="54" y="260" text-anchor="middle" class="technique">detail::fwd</text>
  <text x="54" y="269" text-anchor="middle" class="technique">-fno-builtin</text>
  <text x="54" y="278" text-anchor="middle" class="technique">106%</text>
  <rect x="30" y="129" fill="#55A4D1" width="12" height="120.951"/>
  <rect x="42" y="129" fill="#55A4D1" width="12" height="120.456"/>
  <rect x="54" y="133" fill="#55A4D1" width="12" height="116.721"/>
  <rect x="66" y="133" fill="#55A4D1" width="12" height="116.015"/>
</g>
<g>
  <text x="114" y="260" text-anchor="middle" class="technique">std::forward</text>
  <text x="114" y="269" text-anchor="middle" class="technique">-fno-builtin</text>
  <text x="114" y="278" text-anchor="middle" class="technique">109%</text>
  <rect x="90" y="129" fill="#DD7760" width="12" height="120.684"/>
  <rect x="102" y="124" fill="#DD7760" width="12" height="125.567"/>
  <rect x="114" y="128" fill="#DD7760" width="12" height="121.821"/>
  <rect x="126" y="131" fill="#DD7760" width="12" height="118.924"/>
</g>
<g>
  <text x="174" y="260" text-anchor="middle" class="technique">cast</text>
  <text x="174" y="269" text-anchor="middle" class="technique">-fno-builtin</text>
  <text x="174" y="278" text-anchor="middle" class="technique">93%</text>
  <rect x="150" y="140" fill="#55BBAF" width="12" height="109.769"/>
  <rect x="162" y="144" fill="#55BBAF" width="12" height="105.419"/>
  <rect x="174" y="150" fill="#55BBAF" width="12" height="99.843"/>
  <rect x="186" y="146" fill="#55BBAF" width="12" height="103.461"/>
</g>
<g>
  <text x="234" y="260" text-anchor="middle" class="technique">detail::fwd</text>
  <text x="234" y="269" text-anchor="middle" class="technique"></text>
  <text x="234" y="278" text-anchor="middle" class="technique">106%</text>
  <rect x="210" y="136" fill="#0077BB" width="12" height="113.710"/>
  <rect x="222" y="131" fill="#0077BB" width="12" height="118.285"/>
  <rect x="234" y="124" fill="#0077BB" width="12" height="125.776"/>
  <rect x="246" y="132" fill="#0077BB" width="12" height="117.796"/>
</g>
<g>
  <text x="294" y="260" text-anchor="middle" class="technique">std::forward</text>
  <text x="294" y="269" text-anchor="middle" class="technique"></text>
  <text x="294" y="278" text-anchor="middle" class="technique">100%</text>
  <rect x="270" y="134" fill="#CC3311" width="12" height="115.064"/>
  <rect x="282" y="139" fill="#CC3311" width="12" height="110.846"/>
  <rect x="294" y="140" fill="#CC3311" width="12" height="109.218"/>
  <rect x="306" y="136" fill="#CC3311" width="12" height="113.160"/>
</g>
<g>
  <text x="354" y="260" text-anchor="middle" class="technique">cast</text>
  <text x="354" y="269" text-anchor="middle" class="technique"></text>
  <text x="354" y="278" text-anchor="middle" class="technique">95%</text>
  <rect x="330" y="147" fill="#009988" width="12" height="102.832"/>
  <rect x="342" y="143" fill="#009988" width="12" height="106.348"/>
  <rect x="354" y="144" fill="#009988" width="12" height="105.589"/>
  <rect x="366" y="138" fill="#009988" width="12" height="111.344"/>
</g>
<text x="576" y="300" text-anchor="middle" class="optlevel">-O2 -g</text>
<g>
  <text x="426" y="260" text-anchor="middle" class="technique">detail::fwd</text>
  <text x="426" y="269" text-anchor="middle" class="technique">-fno-builtin</text>
  <text x="426" y="278" text-anchor="middle" class="technique">105%</text>
  <rect x="402" y="27" fill="#55A4D1" width="12" height="222.003"/>
  <rect x="414" y="28" fill="#55A4D1" width="12" height="221.804"/>
  <rect x="426" y="18" fill="#55A4D1" width="12" height="231.551"/>
  <rect x="438" y="32" fill="#55A4D1" width="12" height="217.968"/>
</g>
<g>
  <text x="486" y="260" text-anchor="middle" class="technique">std::forward</text>
  <text x="486" y="269" text-anchor="middle" class="technique">-fno-builtin</text>
  <text x="486" y="278" text-anchor="middle" class="technique">107%</text>
  <rect x="462" y="16" fill="#DD7760" width="12" height="233.819"/>
  <rect x="474" y="19" fill="#DD7760" width="12" height="230.786"/>
  <rect x="486" y="23" fill="#DD7760" width="12" height="226.708"/>
  <rect x="498" y="28" fill="#DD7760" width="12" height="221.148"/>
</g>
<g>
  <text x="546" y="260" text-anchor="middle" class="technique">cast</text>
  <text x="546" y="269" text-anchor="middle" class="technique">-fno-builtin</text>
  <text x="546" y="278" text-anchor="middle" class="technique">96%</text>
  <rect x="522" y="50" fill="#55BBAF" width="12" height="199.158"/>
  <rect x="534" y="45" fill="#55BBAF" width="12" height="204.091"/>
  <rect x="546" y="47" fill="#55BBAF" width="12" height="202.128"/>
  <rect x="558" y="39" fill="#55BBAF" width="12" height="210.618"/>
</g>
<g>
  <text x="606" y="260" text-anchor="middle" class="technique">detail::fwd</text>
  <text x="606" y="269" text-anchor="middle" class="technique"></text>
  <text x="606" y="278" text-anchor="middle" class="technique">103%</text>
  <rect x="582" y="24" fill="#0077BB" width="12" height="225.538"/>
  <rect x="594" y="34" fill="#0077BB" width="12" height="215.013"/>
  <rect x="606" y="33" fill="#0077BB" width="12" height="216.759"/>
  <rect x="618" y="26" fill="#0077BB" width="12" height="223.713"/>
</g>
<g>
  <text x="666" y="260" text-anchor="middle" class="technique">std::forward</text>
  <text x="666" y="269" text-anchor="middle" class="technique"></text>
  <text x="666" y="278" text-anchor="middle" class="technique">100%</text>
  <rect x="642" y="45" fill="#CC3311" width="12" height="204.809"/>
  <rect x="654" y="33" fill="#CC3311" width="12" height="216.938"/>
  <rect x="666" y="28" fill="#CC3311" width="12" height="221.418"/>
  <rect x="678" y="41" fill="#CC3311" width="12" height="208.776"/>
</g>
<g>
  <text x="726" y="260" text-anchor="middle" class="technique">cast</text>
  <text x="726" y="269" text-anchor="middle" class="technique"></text>
  <text x="726" y="278" text-anchor="middle" class="technique">97%</text>
  <rect x="702" y="38" fill="#009988" width="12" height="211.770"/>
  <rect x="714" y="47" fill="#009988" width="12" height="202.536"/>
  <rect x="726" y="42" fill="#009988" width="12" height="207.602"/>
  <rect x="738" y="48" fill="#009988" width="12" height="201.535"/>
</g>
<text x="948" y="300" text-anchor="middle" class="optlevel">-O3</text>
<g>
  <text x="798" y="260" text-anchor="middle" class="technique">detail::fwd</text>
  <text x="798" y="269" text-anchor="middle" class="technique">-fno-builtin</text>
  <text x="798" y="278" text-anchor="middle" class="technique">103%</text>
  <rect x="774" y="81" fill="#55A4D1" width="12" height="168.324"/>
  <rect x="786" y="71" fill="#55A4D1" width="12" height="178.451"/>
  <rect x="798" y="70" fill="#55A4D1" width="12" height="179.675"/>
  <rect x="810" y="80" fill="#55A4D1" width="12" height="169.649"/>
</g>
<g>
  <text x="858" y="260" text-anchor="middle" class="technique">std::forward</text>
  <text x="858" y="269" text-anchor="middle" class="technique">-fno-builtin</text>
  <text x="858" y="278" text-anchor="middle" class="technique">102%</text>
  <rect x="834" y="82" fill="#DD7760" width="12" height="167.232"/>
  <rect x="846" y="78" fill="#DD7760" width="12" height="171.536"/>
  <rect x="858" y="69" fill="#DD7760" width="12" height="180.935"/>
  <rect x="870" y="78" fill="#DD7760" width="12" height="171.175"/>
</g>
<g>
  <text x="918" y="260" text-anchor="middle" class="technique">cast</text>
  <text x="918" y="269" text-anchor="middle" class="technique">-fno-builtin</text>
  <text x="918" y="278" text-anchor="middle" class="technique">95%</text>
  <rect x="894" y="89" fill="#55BBAF" width="12" height="160.831"/>
  <rect x="906" y="85" fill="#55BBAF" width="12" height="164.267"/>
  <rect x="918" y="91" fill="#55BBAF" width="12" height="158.836"/>
  <rect x="930" y="92" fill="#55BBAF" width="12" height="157.007"/>
</g>
<g>
  <text x="978" y="260" text-anchor="middle" class="technique">detail::fwd</text>
  <text x="978" y="269" text-anchor="middle" class="technique"></text>
  <text x="978" y="278" text-anchor="middle" class="technique">102%</text>
  <rect x="954" y="74" fill="#0077BB" width="12" height="175.636"/>
  <rect x="966" y="81" fill="#0077BB" width="12" height="168.599"/>
  <rect x="978" y="79" fill="#0077BB" width="12" height="170.926"/>
  <rect x="990" y="71" fill="#0077BB" width="12" height="178.123"/>
</g>
<g>
  <text x="1038" y="260" text-anchor="middle" class="technique">std::forward</text>
  <text x="1038" y="269" text-anchor="middle" class="technique"></text>
  <text x="1038" y="278" text-anchor="middle" class="technique">100%</text>
  <rect x="1014" y="82" fill="#CC3311" width="12" height="167.517"/>
  <rect x="1026" y="85" fill="#CC3311" width="12" height="164.323"/>
  <rect x="1038" y="80" fill="#CC3311" width="12" height="169.296"/>
  <rect x="1050" y="74" fill="#CC3311" width="12" height="175.783"/>
</g>
<g>
  <text x="1098" y="260" text-anchor="middle" class="technique">cast</text>
  <text x="1098" y="269" text-anchor="middle" class="technique"></text>
  <text x="1098" y="278" text-anchor="middle" class="technique">94%</text>
  <rect x="1074" y="90" fill="#009988" width="12" height="159.933"/>
  <rect x="1086" y="93" fill="#009988" width="12" height="156.982"/>
  <rect x="1098" y="88" fill="#009988" width="12" height="161.922"/>
  <rect x="1110" y="90" fill="#009988" width="12" height="159.044"/>
</g>

</svg>

