<svg version="1.1" xmlns="http://www.w3.org/2000/svg" width="125" height="150" viewBox="0 0 125 150">
<!--
  Original https://commons.wikimedia.org/wiki/File:All_18_Pentominoes.svg
  (C) 2008 R. A. Nonenmacher (CC BY-SA 4.0)
  Modifications by Arthur O'Dwyer (C) 2022 (CC BY-SA 4.0)

  Original https://openclipart.org/detail/18657/by18657
  (C) 2006 portablejim (http://creativecommons.org/licenses/publicdomain/)
  Modifications by Arthur O'Dwyer (C) 2022 (CC BY-SA 4.0)
-->
<g id="Z1">
  <rect x="50" y="75" fill="#CCCCCC" stroke="#000000" stroke-width="0.25" width="25" height="25"/>
  <rect x="25" y="75" fill="#CCCCCC" stroke="#000000" stroke-width="0.25" width="25" height="25"/>
  <rect x="25" y="50" fill="#CCCCCC" stroke="#000000" stroke-width="0.25" width="25" height="25"/>
  <rect x="25" y="25" fill="#CCCCCC" stroke="#000000" stroke-width="0.25" width="25" height="25"/>
  <rect x="50" y="25" fill="#CCCCCC" stroke="#000000" stroke-width="0.25" width="25" height="25"/>
  <rect x="75" y="25" fill="#CCCCCC" stroke="#000000" stroke-width="0.25" width="25" height="25"/>
  <rect x="75" y="50" fill="#CCCCCC" stroke="#000000" stroke-width="0.25" width="25" height="25"/>
  <polygon fill="none" stroke="#000000" stroke-width="3" points="25,100 25,25 100,25 100,75 75,75 75,50 50,50 50,75 75,75 75,100"/>
</g>

  <g id="rook1" transform="translate(+50 +65) scale(0.048 0.048)">
    <path id="path2406" style="fill:#000000" d="m90 422.5v-18.5h12.5 12.5v-21.35-21.36l21-22.36 21-22.36v-74.56-74.56l-24.44-18.47-24.45-18.48-0.05-33.75-0.06-33.75h28.5 28.5v15 15h26 26v-15-15h35 35v15 15h26 26v-15-15h28.5 28.5l-0.05 33.75-0.05 33.75-24.45 18.5-24.45 18.5v74.7 74.69l20.97 22.31 20.97 22.3 0.03 21.25 0.03 21.25h12.5 12.5v18.5 18.5h-162-162v-18.5z" transform="translate(523.71 225.65)"/>
    <path id="path2392" style="fill:#ffffff" d="m387.55 134.55c1.35-1.35 2.45-3.62 2.45-5.05 0-1.42-1.1-3.7-2.45-5.05l-2.46-2.45h-133.09-133.09l-2.46 2.45c-1.35 1.35-2.45 3.63-2.45 5.05s1.1 3.7 2.45 5.05l2.46 2.45h133.09 133.09l2.46-2.45z" transform="translate(523.71 225.65)"/>
    <path id="path2390" style="fill:#ffffff" d="m337.55 172.55c1.35-1.35 2.45-3.62 2.45-5.05 0-1.42-1.1-3.7-2.45-5.05l-2.46-2.45h-83.09-83.09l-2.46 2.45c-1.35 1.35-2.45 3.63-2.45 5.05s1.1 3.7 2.45 5.05l2.46 2.45h83.09 83.09l2.46-2.45z" transform="translate(523.71 225.65)"/>
    <path id="path2388" style="fill:#ffffff" d="m337.55 321.55c1.35-1.35 2.45-3.62 2.45-5.05 0-1.42-1.1-3.7-2.45-5.05l-2.46-2.45h-83.09-83.09l-2.46 2.45c-1.35 1.35-2.45 3.63-2.45 5.05 0 1.43 1.1 3.7 2.45 5.05l2.46 2.45h83.09 83.09l2.46-2.45z" transform="translate(523.71 225.65)"/>
    <path id="path2386" style="fill:#ffffff" d="m379.09 367.72c4.34-3.34 4.6-8.07 0.64-11.75-2.07-1.94-4.21-1.97-127.73-1.97s-125.66 0.03-127.73 1.97c-3.96 3.68-3.7 8.41 0.64 11.75 2.31 1.77 251.87 1.77 254.18 0z" transform="translate(523.71 225.65)"/>
    <path id="path2384" style="fill:#ffffff" d="m379.09 409.72c4.34-3.34 4.6-8.07 0.64-11.75-2.07-1.94-4.21-1.97-127.73-1.97s-125.66 0.03-127.73 1.97c-3.96 3.68-3.7 8.41 0.64 11.75 2.31 1.77 251.87 1.77 254.18 0z" transform="translate(523.71 225.65)"/>
  </g>
  <g id="rook2" transform="translate(+25 +40) scale(0.048 0.048)">
    <path id="path2406" style="fill:#000000" d="m90 422.5v-18.5h12.5 12.5v-21.35-21.36l21-22.36 21-22.36v-74.56-74.56l-24.44-18.47-24.45-18.48-0.05-33.75-0.06-33.75h28.5 28.5v15 15h26 26v-15-15h35 35v15 15h26 26v-15-15h28.5 28.5l-0.05 33.75-0.05 33.75-24.45 18.5-24.45 18.5v74.7 74.69l20.97 22.31 20.97 22.3 0.03 21.25 0.03 21.25h12.5 12.5v18.5 18.5h-162-162v-18.5z" transform="translate(523.71 225.65)"/>
    <path id="path2392" style="fill:#ffffff" d="m387.55 134.55c1.35-1.35 2.45-3.62 2.45-5.05 0-1.42-1.1-3.7-2.45-5.05l-2.46-2.45h-133.09-133.09l-2.46 2.45c-1.35 1.35-2.45 3.63-2.45 5.05s1.1 3.7 2.45 5.05l2.46 2.45h133.09 133.09l2.46-2.45z" transform="translate(523.71 225.65)"/>
    <path id="path2390" style="fill:#ffffff" d="m337.55 172.55c1.35-1.35 2.45-3.62 2.45-5.05 0-1.42-1.1-3.7-2.45-5.05l-2.46-2.45h-83.09-83.09l-2.46 2.45c-1.35 1.35-2.45 3.63-2.45 5.05s1.1 3.7 2.45 5.05l2.46 2.45h83.09 83.09l2.46-2.45z" transform="translate(523.71 225.65)"/>
    <path id="path2388" style="fill:#ffffff" d="m337.55 321.55c1.35-1.35 2.45-3.62 2.45-5.05 0-1.42-1.1-3.7-2.45-5.05l-2.46-2.45h-83.09-83.09l-2.46 2.45c-1.35 1.35-2.45 3.63-2.45 5.05 0 1.43 1.1 3.7 2.45 5.05l2.46 2.45h83.09 83.09l2.46-2.45z" transform="translate(523.71 225.65)"/>
    <path id="path2386" style="fill:#ffffff" d="m379.09 367.72c4.34-3.34 4.6-8.07 0.64-11.75-2.07-1.94-4.21-1.97-127.73-1.97s-125.66 0.03-127.73 1.97c-3.96 3.68-3.7 8.41 0.64 11.75 2.31 1.77 251.87 1.77 254.18 0z" transform="translate(523.71 225.65)"/>
    <path id="path2384" style="fill:#ffffff" d="m379.09 409.72c4.34-3.34 4.6-8.07 0.64-11.75-2.07-1.94-4.21-1.97-127.73-1.97s-125.66 0.03-127.73 1.97c-3.96 3.68-3.7 8.41 0.64 11.75 2.31 1.77 251.87 1.77 254.18 0z" transform="translate(523.71 225.65)"/>
  </g>
</svg>
