<svg version="1.1" xmlns="http://www.w3.org/2000/svg" width="220" height="140" viewBox="-10 -10 210 130">
<rect x="0" y="0" width="20" height="20" stroke="black" fill-opacity="20%" fill="red"></rect>
<text stroke="black" text-anchor="middle" dominant-baseline="central" x="10" y="10">0</text>
<rect x="20" y="0" width="20" height="20" stroke="black" fill-opacity="20%" fill="yellow"></rect>
<text stroke="black" text-anchor="middle" dominant-baseline="central" x="30" y="10">2</text>
<rect x="40" y="0" width="20" height="20" stroke="black" fill-opacity="20%" fill="yellow"></rect>
<text stroke="black" text-anchor="middle" dominant-baseline="central" x="50" y="10">0</text>
<rect x="60" y="0" width="20" height="20" stroke="black" fill-opacity="20%" fill="yellow"></rect>
<text stroke="black" text-anchor="middle" dominant-baseline="central" x="70" y="10">1</text>
<rect x="80" y="0" width="20" height="20" stroke="black" fill-opacity="20%" fill="yellow"></rect>
<text stroke="black" text-anchor="middle" dominant-baseline="central" x="90" y="10">4</text>
<rect x="100" y="0" width="20" height="20" stroke="black" fill-opacity="20%" fill="yellow"></rect>
<text stroke="black" text-anchor="middle" dominant-baseline="central" x="110" y="10">3</text>
<rect x="120" y="0" width="20" height="20" stroke="black" fill-opacity="20%" fill="green"></rect>
<text stroke="black" text-anchor="middle" dominant-baseline="central" x="130" y="10">0</text>
<rect x="140" y="0" width="20" height="20" stroke="black" fill-opacity="20%" fill="green"></rect>
<text stroke="black" text-anchor="middle" dominant-baseline="central" x="150" y="10">1</text>
<rect x="160" y="0" width="20" height="20" stroke="black" fill-opacity="20%" fill="green"></rect>
<text stroke="black" text-anchor="middle" dominant-baseline="central" x="170" y="10">2</text>
<rect x="180" y="0" width="20" height="20" stroke="black" fill-opacity="20%" fill="green"></rect>
<text stroke="black" text-anchor="middle" dominant-baseline="central" x="190" y="10">3</text>
<rect x="0" y="20" width="20" height="20" stroke="black" fill-opacity="20%" fill="red"></rect>
<text stroke="black" text-anchor="middle" dominant-baseline="central" x="10" y="30">4</text>
<rect x="20" y="20" width="20" height="20" stroke="black" fill-opacity="20%" fill="red"></rect>
<text stroke="black" text-anchor="middle" dominant-baseline="central" x="30" y="30">1</text>
<rect x="40" y="20" width="20" height="20" stroke="black" fill-opacity="20%" fill="red"></rect>
<text stroke="black" text-anchor="middle" dominant-baseline="central" x="50" y="30">3</text>
<rect x="60" y="20" width="20" height="20" stroke="black" fill-opacity="20%" fill="green"></rect>
<text stroke="black" text-anchor="middle" dominant-baseline="central" x="70" y="30">2</text>
<rect x="80" y="20" width="20" height="20" stroke="black" fill-opacity="20%" fill="blue"></rect>
<text stroke="black" text-anchor="middle" dominant-baseline="central" x="90" y="30">1</text>
<rect x="100" y="20" width="20" height="20" stroke="black" fill-opacity="20%" fill="blue"></rect>
<text stroke="black" text-anchor="middle" dominant-baseline="central" x="110" y="30">4</text>
<rect x="120" y="20" width="20" height="20" stroke="black" fill-opacity="20%" fill="red"></rect>
<text stroke="black" text-anchor="middle" dominant-baseline="central" x="130" y="30">3</text>
<rect x="140" y="20" width="20" height="20" stroke="black" fill-opacity="20%" fill="red"></rect>
<text stroke="black" text-anchor="middle" dominant-baseline="central" x="150" y="30">4</text>
<rect x="160" y="20" width="20" height="20" stroke="black" fill-opacity="20%" fill="red"></rect>
<text stroke="black" text-anchor="middle" dominant-baseline="central" x="170" y="30">1</text>
<rect x="180" y="20" width="20" height="20" stroke="black" fill-opacity="20%" fill="green"></rect>
<text stroke="black" text-anchor="middle" dominant-baseline="central" x="190" y="30">4</text>
<rect x="0" y="40" width="20" height="20" stroke="black" fill-opacity="20%" fill="yellow"></rect>
<text stroke="black" text-anchor="middle" dominant-baseline="central" x="10" y="50">1</text>
<rect x="20" y="40" width="20" height="20" stroke="black" fill-opacity="20%" fill="red"></rect>
<text stroke="black" text-anchor="middle" dominant-baseline="central" x="30" y="50">2</text>
<rect x="40" y="40" width="20" height="20" stroke="black" fill-opacity="20%" fill="green"></rect>
<text stroke="black" text-anchor="middle" dominant-baseline="central" x="50" y="50">0</text>
<rect x="60" y="40" width="20" height="20" stroke="black" fill-opacity="20%" fill="green"></rect>
<text stroke="black" text-anchor="middle" dominant-baseline="central" x="70" y="50">1</text>
<rect x="80" y="40" width="20" height="20" stroke="black" fill-opacity="20%" fill="red"></rect>
<text stroke="black" text-anchor="middle" dominant-baseline="central" x="90" y="50">4</text>
<rect x="100" y="40" width="20" height="20" stroke="black" fill-opacity="20%" fill="blue"></rect>
<text stroke="black" text-anchor="middle" dominant-baseline="central" x="110" y="50">3</text>
<rect x="120" y="40" width="20" height="20" stroke="black" fill-opacity="20%" fill="blue"></rect>
<text stroke="black" text-anchor="middle" dominant-baseline="central" x="130" y="50">2</text>
<rect x="140" y="40" width="20" height="20" stroke="black" fill-opacity="20%" fill="red"></rect>
<text stroke="black" text-anchor="middle" dominant-baseline="central" x="150" y="50">0</text>
<rect x="160" y="40" width="20" height="20" stroke="black" fill-opacity="20%" fill="yellow"></rect>
<text stroke="black" text-anchor="middle" dominant-baseline="central" x="170" y="50">2</text>
<rect x="180" y="40" width="20" height="20" stroke="black" fill-opacity="20%" fill="yellow"></rect>
<text stroke="black" text-anchor="middle" dominant-baseline="central" x="190" y="50">1</text>
<rect x="0" y="60" width="20" height="20" stroke="black" fill-opacity="20%" fill="yellow"></rect>
<text stroke="black" text-anchor="middle" dominant-baseline="central" x="10" y="70">0</text>
<rect x="20" y="60" width="20" height="20" stroke="black" fill-opacity="20%" fill="yellow"></rect>
<text stroke="black" text-anchor="middle" dominant-baseline="central" x="30" y="70">3</text>
<rect x="40" y="60" width="20" height="20" stroke="black" fill-opacity="20%" fill="green"></rect>
<text stroke="black" text-anchor="middle" dominant-baseline="central" x="50" y="70">4</text>
<rect x="60" y="60" width="20" height="20" stroke="black" fill-opacity="20%" fill="red"></rect>
<text stroke="black" text-anchor="middle" dominant-baseline="central" x="70" y="70">1</text>
<rect x="80" y="60" width="20" height="20" stroke="black" fill-opacity="20%" fill="red"></rect>
<text stroke="black" text-anchor="middle" dominant-baseline="central" x="90" y="70">0</text>
<rect x="100" y="60" width="20" height="20" stroke="black" fill-opacity="20%" fill="red"></rect>
<text stroke="black" text-anchor="middle" dominant-baseline="central" x="110" y="70">2</text>
<rect x="120" y="60" width="20" height="20" stroke="black" fill-opacity="20%" fill="blue"></rect>
<text stroke="black" text-anchor="middle" dominant-baseline="central" x="130" y="70">0</text>
<rect x="140" y="60" width="20" height="20" stroke="black" fill-opacity="20%" fill="red"></rect>
<text stroke="black" text-anchor="middle" dominant-baseline="central" x="150" y="70">2</text>
<rect x="160" y="60" width="20" height="20" stroke="black" fill-opacity="20%" fill="yellow"></rect>
<text stroke="black" text-anchor="middle" dominant-baseline="central" x="170" y="70">0</text>
<rect x="180" y="60" width="20" height="20" stroke="black" fill-opacity="20%" fill="blue"></rect>
<text stroke="black" text-anchor="middle" dominant-baseline="central" x="190" y="70">2</text>
<rect x="0" y="80" width="20" height="20" stroke="black" fill-opacity="20%" fill="yellow"></rect>
<text stroke="black" text-anchor="middle" dominant-baseline="central" x="10" y="90">2</text>
<rect x="20" y="80" width="20" height="20" stroke="black" fill-opacity="20%" fill="blue"></rect>
<text stroke="black" text-anchor="middle" dominant-baseline="central" x="30" y="90">0</text>
<rect x="40" y="80" width="20" height="20" stroke="black" fill-opacity="20%" fill="green"></rect>
<text stroke="black" text-anchor="middle" dominant-baseline="central" x="50" y="90">3</text>
<rect x="60" y="80" width="20" height="20" stroke="black" fill-opacity="20%" fill="blue"></rect>
<text stroke="black" text-anchor="middle" dominant-baseline="central" x="70" y="90">2</text>
<rect x="80" y="80" width="20" height="20" stroke="black" fill-opacity="20%" fill="red"></rect>
<text stroke="black" text-anchor="middle" dominant-baseline="central" x="90" y="90">3</text>
<rect x="100" y="80" width="20" height="20" stroke="black" fill-opacity="20%" fill="green"></rect>
<text stroke="black" text-anchor="middle" dominant-baseline="central" x="110" y="90">0</text>
<rect x="120" y="80" width="20" height="20" stroke="black" fill-opacity="20%" fill="green"></rect>
<text stroke="black" text-anchor="middle" dominant-baseline="central" x="130" y="90">2</text>
<rect x="140" y="80" width="20" height="20" stroke="black" fill-opacity="20%" fill="yellow"></rect>
<text stroke="black" text-anchor="middle" dominant-baseline="central" x="150" y="90">3</text>
<rect x="160" y="80" width="20" height="20" stroke="black" fill-opacity="20%" fill="yellow"></rect>
<text stroke="black" text-anchor="middle" dominant-baseline="central" x="170" y="90">4</text>
<rect x="180" y="80" width="20" height="20" stroke="black" fill-opacity="20%" fill="blue"></rect>
<text stroke="black" text-anchor="middle" dominant-baseline="central" x="190" y="90">1</text>
<rect x="0" y="100" width="20" height="20" stroke="black" fill-opacity="20%" fill="yellow"></rect>
<text stroke="black" text-anchor="middle" dominant-baseline="central" x="10" y="110">4</text>
<rect x="20" y="100" width="20" height="20" stroke="black" fill-opacity="20%" fill="blue"></rect>
<text stroke="black" text-anchor="middle" dominant-baseline="central" x="30" y="110">1</text>
<rect x="40" y="100" width="20" height="20" stroke="black" fill-opacity="20%" fill="blue"></rect>
<text stroke="black" text-anchor="middle" dominant-baseline="central" x="50" y="110">4</text>
<rect x="60" y="100" width="20" height="20" stroke="black" fill-opacity="20%" fill="blue"></rect>
<text stroke="black" text-anchor="middle" dominant-baseline="central" x="70" y="110">3</text>
<rect x="80" y="100" width="20" height="20" stroke="black" fill-opacity="20%" fill="green"></rect>
<text stroke="black" text-anchor="middle" dominant-baseline="central" x="90" y="110">4</text>
<rect x="100" y="100" width="20" height="20" stroke="black" fill-opacity="20%" fill="green"></rect>
<text stroke="black" text-anchor="middle" dominant-baseline="central" x="110" y="110">1</text>
<rect x="120" y="100" width="20" height="20" stroke="black" fill-opacity="20%" fill="green"></rect>
<text stroke="black" text-anchor="middle" dominant-baseline="central" x="130" y="110">3</text>
<rect x="140" y="100" width="20" height="20" stroke="black" fill-opacity="20%" fill="blue"></rect>
<text stroke="black" text-anchor="middle" dominant-baseline="central" x="150" y="110">0</text>
<rect x="160" y="100" width="20" height="20" stroke="black" fill-opacity="20%" fill="blue"></rect>
<text stroke="black" text-anchor="middle" dominant-baseline="central" x="170" y="110">3</text>
<rect x="180" y="100" width="20" height="20" stroke="black" fill-opacity="20%" fill="blue"></rect>
<text stroke="black" text-anchor="middle" dominant-baseline="central" x="190" y="110">4</text>
</svg>
