<svg version="1.1" xmlns="http://www.w3.org/2000/svg" width="220" height="140" viewBox="-10 -10 210 130">
<rect x="0" y="0" width="20" height="20" stroke="black" fill-opacity="20%" fill="red"></rect>
<text stroke="black" text-anchor="middle" dominant-baseline="central" x="10" y="10">F</text>
<rect x="20" y="0" width="20" height="20" stroke="black" fill-opacity="20%" fill="yellow"></rect>
<text stroke="black" text-anchor="middle" dominant-baseline="central" x="30" y="10">I</text>
<rect x="40" y="0" width="20" height="20" stroke="black" fill-opacity="20%" fill="yellow"></rect>
<text stroke="black" text-anchor="middle" dominant-baseline="central" x="50" y="10">I</text>
<rect x="60" y="0" width="20" height="20" stroke="black" fill-opacity="20%" fill="yellow"></rect>
<text stroke="black" text-anchor="middle" dominant-baseline="central" x="70" y="10">I</text>
<rect x="80" y="0" width="20" height="20" stroke="black" fill-opacity="20%" fill="yellow"></rect>
<text stroke="black" text-anchor="middle" dominant-baseline="central" x="90" y="10">I</text>
<rect x="100" y="0" width="20" height="20" stroke="black" fill-opacity="20%" fill="yellow"></rect>
<text stroke="black" text-anchor="middle" dominant-baseline="central" x="110" y="10">I</text>
<rect x="120" y="0" width="20" height="20" stroke="black" fill-opacity="20%" fill="green"></rect>
<text stroke="black" text-anchor="middle" dominant-baseline="central" x="130" y="10">L</text>
<rect x="140" y="0" width="20" height="20" stroke="black" fill-opacity="20%" fill="green"></rect>
<text stroke="black" text-anchor="middle" dominant-baseline="central" x="150" y="10">L</text>
<rect x="160" y="0" width="20" height="20" stroke="black" fill-opacity="20%" fill="green"></rect>
<text stroke="black" text-anchor="middle" dominant-baseline="central" x="170" y="10">L</text>
<rect x="180" y="0" width="20" height="20" stroke="black" fill-opacity="20%" fill="green"></rect>
<text stroke="black" text-anchor="middle" dominant-baseline="central" x="190" y="10">L</text>
<rect x="0" y="20" width="20" height="20" stroke="black" fill-opacity="20%" fill="red"></rect>
<text stroke="black" text-anchor="middle" dominant-baseline="central" x="10" y="30">F</text>
<rect x="20" y="20" width="20" height="20" stroke="black" fill-opacity="20%" fill="red"></rect>
<text stroke="black" text-anchor="middle" dominant-baseline="central" x="30" y="30">F</text>
<rect x="40" y="20" width="20" height="20" stroke="black" fill-opacity="20%" fill="red"></rect>
<text stroke="black" text-anchor="middle" dominant-baseline="central" x="50" y="30">F</text>
<rect x="60" y="20" width="20" height="20" stroke="black" fill-opacity="20%" fill="green"></rect>
<text stroke="black" text-anchor="middle" dominant-baseline="central" x="70" y="30">N</text>
<rect x="80" y="20" width="20" height="20" stroke="black" fill-opacity="20%" fill="blue"></rect>
<text stroke="black" text-anchor="middle" dominant-baseline="central" x="90" y="30">W</text>
<rect x="100" y="20" width="20" height="20" stroke="black" fill-opacity="20%" fill="blue"></rect>
<text stroke="black" text-anchor="middle" dominant-baseline="central" x="110" y="30">W</text>
<rect x="120" y="20" width="20" height="20" stroke="black" fill-opacity="20%" fill="red"></rect>
<text stroke="black" text-anchor="middle" dominant-baseline="central" x="130" y="30">T</text>
<rect x="140" y="20" width="20" height="20" stroke="black" fill-opacity="20%" fill="red"></rect>
<text stroke="black" text-anchor="middle" dominant-baseline="central" x="150" y="30">T</text>
<rect x="160" y="20" width="20" height="20" stroke="black" fill-opacity="20%" fill="red"></rect>
<text stroke="black" text-anchor="middle" dominant-baseline="central" x="170" y="30">T</text>
<rect x="180" y="20" width="20" height="20" stroke="black" fill-opacity="20%" fill="green"></rect>
<text stroke="black" text-anchor="middle" dominant-baseline="central" x="190" y="30">L</text>
<rect x="0" y="40" width="20" height="20" stroke="black" fill-opacity="20%" fill="yellow"></rect>
<text stroke="black" text-anchor="middle" dominant-baseline="central" x="10" y="50">Y</text>
<rect x="20" y="40" width="20" height="20" stroke="black" fill-opacity="20%" fill="red"></rect>
<text stroke="black" text-anchor="middle" dominant-baseline="central" x="30" y="50">F</text>
<rect x="40" y="40" width="20" height="20" stroke="black" fill-opacity="20%" fill="green"></rect>
<text stroke="black" text-anchor="middle" dominant-baseline="central" x="50" y="50">N</text>
<rect x="60" y="40" width="20" height="20" stroke="black" fill-opacity="20%" fill="green"></rect>
<text stroke="black" text-anchor="middle" dominant-baseline="central" x="70" y="50">N</text>
<rect x="80" y="40" width="20" height="20" stroke="black" fill-opacity="20%" fill="red"></rect>
<text stroke="black" text-anchor="middle" dominant-baseline="central" x="90" y="50">X</text>
<rect x="100" y="40" width="20" height="20" stroke="black" fill-opacity="20%" fill="blue"></rect>
<text stroke="black" text-anchor="middle" dominant-baseline="central" x="110" y="50">W</text>
<rect x="120" y="40" width="20" height="20" stroke="black" fill-opacity="20%" fill="blue"></rect>
<text stroke="black" text-anchor="middle" dominant-baseline="central" x="130" y="50">W</text>
<rect x="140" y="40" width="20" height="20" stroke="black" fill-opacity="20%" fill="red"></rect>
<text stroke="black" text-anchor="middle" dominant-baseline="central" x="150" y="50">T</text>
<rect x="160" y="40" width="20" height="20" stroke="black" fill-opacity="20%" fill="yellow"></rect>
<text stroke="black" text-anchor="middle" dominant-baseline="central" x="170" y="50">Z</text>
<rect x="180" y="40" width="20" height="20" stroke="black" fill-opacity="20%" fill="yellow"></rect>
<text stroke="black" text-anchor="middle" dominant-baseline="central" x="190" y="50">Z</text>
<rect x="0" y="60" width="20" height="20" stroke="black" fill-opacity="20%" fill="yellow"></rect>
<text stroke="black" text-anchor="middle" dominant-baseline="central" x="10" y="70">Y</text>
<rect x="20" y="60" width="20" height="20" stroke="black" fill-opacity="20%" fill="yellow"></rect>
<text stroke="black" text-anchor="middle" dominant-baseline="central" x="30" y="70">Y</text>
<rect x="40" y="60" width="20" height="20" stroke="black" fill-opacity="20%" fill="green"></rect>
<text stroke="black" text-anchor="middle" dominant-baseline="central" x="50" y="70">N</text>
<rect x="60" y="60" width="20" height="20" stroke="black" fill-opacity="20%" fill="red"></rect>
<text stroke="black" text-anchor="middle" dominant-baseline="central" x="70" y="70">X</text>
<rect x="80" y="60" width="20" height="20" stroke="black" fill-opacity="20%" fill="red"></rect>
<text stroke="black" text-anchor="middle" dominant-baseline="central" x="90" y="70">X</text>
<rect x="100" y="60" width="20" height="20" stroke="black" fill-opacity="20%" fill="red"></rect>
<text stroke="black" text-anchor="middle" dominant-baseline="central" x="110" y="70">X</text>
<rect x="120" y="60" width="20" height="20" stroke="black" fill-opacity="20%" fill="blue"></rect>
<text stroke="black" text-anchor="middle" dominant-baseline="central" x="130" y="70">W</text>
<rect x="140" y="60" width="20" height="20" stroke="black" fill-opacity="20%" fill="red"></rect>
<text stroke="black" text-anchor="middle" dominant-baseline="central" x="150" y="70">T</text>
<rect x="160" y="60" width="20" height="20" stroke="black" fill-opacity="20%" fill="yellow"></rect>
<text stroke="black" text-anchor="middle" dominant-baseline="central" x="170" y="70">Z</text>
<rect x="180" y="60" width="20" height="20" stroke="black" fill-opacity="20%" fill="blue"></rect>
<text stroke="black" text-anchor="middle" dominant-baseline="central" x="190" y="70">V</text>
<rect x="0" y="80" width="20" height="20" stroke="black" fill-opacity="20%" fill="yellow"></rect>
<text stroke="black" text-anchor="middle" dominant-baseline="central" x="10" y="90">Y</text>
<rect x="20" y="80" width="20" height="20" stroke="black" fill-opacity="20%" fill="blue"></rect>
<text stroke="black" text-anchor="middle" dominant-baseline="central" x="30" y="90">U</text>
<rect x="40" y="80" width="20" height="20" stroke="black" fill-opacity="20%" fill="green"></rect>
<text stroke="black" text-anchor="middle" dominant-baseline="central" x="50" y="90">N</text>
<rect x="60" y="80" width="20" height="20" stroke="black" fill-opacity="20%" fill="blue"></rect>
<text stroke="black" text-anchor="middle" dominant-baseline="central" x="70" y="90">U</text>
<rect x="80" y="80" width="20" height="20" stroke="black" fill-opacity="20%" fill="red"></rect>
<text stroke="black" text-anchor="middle" dominant-baseline="central" x="90" y="90">X</text>
<rect x="100" y="80" width="20" height="20" stroke="black" fill-opacity="20%" fill="green"></rect>
<text stroke="black" text-anchor="middle" dominant-baseline="central" x="110" y="90">P</text>
<rect x="120" y="80" width="20" height="20" stroke="black" fill-opacity="20%" fill="green"></rect>
<text stroke="black" text-anchor="middle" dominant-baseline="central" x="130" y="90">P</text>
<rect x="140" y="80" width="20" height="20" stroke="black" fill-opacity="20%" fill="yellow"></rect>
<text stroke="black" text-anchor="middle" dominant-baseline="central" x="150" y="90">Z</text>
<rect x="160" y="80" width="20" height="20" stroke="black" fill-opacity="20%" fill="yellow"></rect>
<text stroke="black" text-anchor="middle" dominant-baseline="central" x="170" y="90">Z</text>
<rect x="180" y="80" width="20" height="20" stroke="black" fill-opacity="20%" fill="blue"></rect>
<text stroke="black" text-anchor="middle" dominant-baseline="central" x="190" y="90">V</text>
<rect x="0" y="100" width="20" height="20" stroke="black" fill-opacity="20%" fill="yellow"></rect>
<text stroke="black" text-anchor="middle" dominant-baseline="central" x="10" y="110">Y</text>
<rect x="20" y="100" width="20" height="20" stroke="black" fill-opacity="20%" fill="blue"></rect>
<text stroke="black" text-anchor="middle" dominant-baseline="central" x="30" y="110">U</text>
<rect x="40" y="100" width="20" height="20" stroke="black" fill-opacity="20%" fill="blue"></rect>
<text stroke="black" text-anchor="middle" dominant-baseline="central" x="50" y="110">U</text>
<rect x="60" y="100" width="20" height="20" stroke="black" fill-opacity="20%" fill="blue"></rect>
<text stroke="black" text-anchor="middle" dominant-baseline="central" x="70" y="110">U</text>
<rect x="80" y="100" width="20" height="20" stroke="black" fill-opacity="20%" fill="green"></rect>
<text stroke="black" text-anchor="middle" dominant-baseline="central" x="90" y="110">P</text>
<rect x="100" y="100" width="20" height="20" stroke="black" fill-opacity="20%" fill="green"></rect>
<text stroke="black" text-anchor="middle" dominant-baseline="central" x="110" y="110">P</text>
<rect x="120" y="100" width="20" height="20" stroke="black" fill-opacity="20%" fill="green"></rect>
<text stroke="black" text-anchor="middle" dominant-baseline="central" x="130" y="110">P</text>
<rect x="140" y="100" width="20" height="20" stroke="black" fill-opacity="20%" fill="blue"></rect>
<text stroke="black" text-anchor="middle" dominant-baseline="central" x="150" y="110">V</text>
<rect x="160" y="100" width="20" height="20" stroke="black" fill-opacity="20%" fill="blue"></rect>
<text stroke="black" text-anchor="middle" dominant-baseline="central" x="170" y="110">V</text>
<rect x="180" y="100" width="20" height="20" stroke="black" fill-opacity="20%" fill="blue"></rect>
<text stroke="black" text-anchor="middle" dominant-baseline="central" x="190" y="110">V</text>
</svg>
